/* XPM */
static char * Literal_xpm[] = {
"116 115 5 1",
" 	c None",
".	c #FFFFFF",
"+	c #000000",
"@	c #00C800",
"#	c #90FFFF",
"                                                                                                                    ",
".................................................................................................................   ",
".................................................................................................................   ",
"........................................................+........................................................   ",
".......................................................+++.......................................................   ",
"......................................................+++++......................................................   ",
".....................................................+++@+++.....................................................   ",
"....................................................+++@@@+++....................................................   ",
"...................................................+++@@@@@+++...................................................   ",
"..................................................+++@@@@@@@+++..................................................   ",
".................................................+++@@@@@@@@@+++.................................................   ",
"................................................+++@@@@@@@@@@@+++................................................   ",
"...............................................+++@@@@@@@@@@@@@+++...............................................   ",
"..............................................+++@@@@@@@@@@@@@@@+++..............................................   ",
".............................................+++@@@@@@@@@@@@@@@@@+++.............................................   ",
"............................................+++@@@@@@@@@@@@@@@@@@@+++............................................   ",
"...............+++++++++++++++++++++++++++++++@@@@@@@@@@@@@@@@@@@@@++++++++++++++++++++++++++++++................   ",
"...............++++++++++++++++++++++++++++++@@@@@@@@@@@@@@@@@@@@@@@+++++++++++++++++++++++++++++................   ",
"...............++########################+++@@@@@@@@@@@@@@@@@@@@@@@@@+++#######################++................   ",
"...............++#######################+++@@@@@@@@@@@@@@@@@@@@@@@@@@@+++######################++................   ",
"...............++######################+++@@@@@@@@@@@@@@@@@@@@@@@@@@@@@+++#####################++................   ",
"...............++#####################+++@@@@@@@@@@@@@@@@@@@@@@@@@@@@@@@+++####################++................   ",
"...............++####################+++@@@@@@@@@@@@@@@@@@@@@@@@@@@@@@@@@+++###################++................   ",
"...............++###################+++@@@@@@@@@@@@@@@@@@@@@@@@@@@@@@@@@@@+++##################++................   ",
"...............++##################+++@@@@@@@@@@@@@@@@@@@@@@@@@@@@@@@@@@@@@+++#################++................   ",
"...............++#################+++@@@@@@@@@@@@@@@@@@@@@@@@@@@@@@@@@@@@@@@+++################++................   ",
"...............++################+++@@@@@@@@@@@@@@@@@@@@@@@@@@@@@@@@@@@@@@@@@+++###############++................   ",
"...............++###############+++@@@@@@@@@@@@@@@@@@@@@@@@@@@@@@@@@@@@@@@@@@@+++##############++................   ",
"...............++##############+++@@@@@@@@@@@@@@@@@@@@@@@@@@@@@@@@@@@@@@@@@@@@@+++#############++................   ",
"...............++#############+++@@@@@@@@@@@@@@@@@@@@@@@@@@@@@@@@@@@@@@@@@@@@@@@+++############++................   ",
"...............++############+++@@@@@@@@@@@@@@@@@@@@@@@@@@@@@@@@@@@@@@@@@@@@@@@@@+++###########++................   ",
"...............++###########+++@@@@@@@@@@@@@@@@@@@@@@@@@@@@@@@@@@@@@@@@@@@@@@@@@@@+++##########++................   ",
"...............++##########+++@@@@@@@@@@@@@@@@@@@@@@@@@@@@@@@@@@@@@@@@@@@@@@@@@@@@@+++#########++................   ",
"...............++#########+++@@@@@@@@@@@@@@@@@@@@@@@@@@@@@@@@@@@@@@@@@@@@@@@@@@@@@@@+++########++................   ",
"...............++########+++@@@@@@@@@@@@@@@@@@@@@@@@@@@@@@@@@@@@@@@@@@@@@@@@@@@@@@@@@+++#######++................   ",
"...............++#######+++@@@@@@@@@@@@@@@@@@@@@@@@@@@@@@@@@@@@@@@@@@@@@@@@@@@@@@@@@@@+++######++................   ",
"...............++######+++@@@@@@@@@@@@@@@@@@@@@@@@@@@@@@@@@@@@@@@@@@@@@@@@@@@@@@@@@@@@@+++#####++................   ",
"...............++#####+++@@@@@@@@@@@@@@@@@@@@@@@@@@@@@@@@@@@@@@@@@@@@@@@@@@@@@@@@@@@@@@@+++####++................   ",
"...............++####+++@@@@@@@@@@@@@@@@@@@@@@@@@@@@@@@@@@@@@@@@@@@@@@@@@@@@@@@@@@@@@@@@@+++###++................   ",
"...............++###+++@@@@@@@@@@@@@@@@@@@@@@@@@@@@@@@@@@@@@@@@@@@@@@@@@@@@@@@@@@@@@@@@@@@+++##++................   ",
"...............++##+++@@@@@@@@@@@@@@@@@@@@@@@@@@@@@@@@@@@@@@@@@@@@@@@@@@@@@@@@@@@@@@@@@@@@@+++#++................   ",
"...............++#+++@@@@@@@@@@@@@@@@@@@@@@@@@@@@@@@@@@@@@@@@@@@@@@@@@@@@@@@@@@@@@@@@@@@@@@@+++++................   ",
"...............+++++@@@@@@@@@@@@@@@@@@@@@@@@@@@@@@@@@@@@@@@@@@@@@@@@@@@@@@@@@@@@@@@@@@@@@@@@@++++................   ",
"...............++++@@@@@@@@@@@@@@@@@@@@@@@@@@@@@@@@@@@@@@@@@@@@@@@@@@@@@@@@@@@@@@@@@@@@@@@@@@@+++................   ",
"...............+++@@@@@@@@@@@@@@@@@@@@@@@@@@@@@@@@@@@@@@@@@@@@@@@@@@@@@@@@@@@@@@@@@@@@@@@@@@@@@+++...............   ",
"..............+++@@@@@@@@@@@@@@@@@@@@@@@@@@@@@@@@@@@@@@@@@@@@@@@@@@@@@@@@@@@@@@@@@@@@@@@@@@@@@@@+++..............   ",
".............+++@@@@@@@@@@@@@@@@@@@@@@@@@@@@@@@@@@@@@@@@@@@@@@@@@@@@@@@@@@@@@@@@@@@@@@@@@@@@@@@@@+++.............   ",
"............+++@@@@@@@@@@@@@@@@@@@@@@@@@@@@@@@@@@@@@@@@@@@@@@@@@@@@@@@@@@@@@@@@@@@@@@@@@@@@@@@@@@@+++............   ",
"...........+++@@@@@@@@@@@@@@@@@@@@@@@@@@@@@@@@@@@@@@@@@@@@@@@@@@@@@@@@@@@@@@@@@@@@@@@@@@@@@@@@@@@@@+++...........   ",
"..........+++@@@@@@@@@@@@@@@@@@@@@@@@...@@@@@@@@@@@@@@@@@@@@@@@@@@@@@@@@@@@@@@@@@...@@@@@@@@@@@@@@@@+++..........   ",
".........+++@@@@@@@@@@@@@@@...@@@@@@@...@@@@@@@@@@@@@@@@@@@@@@@@@@@@@@@@@@@@@@@@@...@@@@@@@@@@@@@@@@@+++.........   ",
"........+++@@@@@@@@@@@@@@@@...@@@@@@@@@@@@@@@..@@@@@@@@@@@@@@@@@@@@@@@@@@@@@@@@@@...@@@@@@@@@@@@@@@@@@+++........   ",
".......+++@@@@@@@@@@@@@@@@@...@@@@@@@@@@@@@@...@@@@@@@@@@@@@@@@@@@@@@@@@@@@@@@@@@...@@@@@@@@@@@@@@@@@@@+++.......   ",
"......+++@@@@@@@@@@@@@@@@@@...@@@@@@@@@@@@@@...@@@@@@@@@@@@@@@@@@@@@@@@@@@@@@@@@@...@@@@@@@@@@@@@@@@@@@@+++......   ",
".....+++@@@@@@@@@@@@@@@@@@@...@@@@@@@...@@.......@@@@.....@@@@..@@..@@@......@@@@...@@@@@@@@@@@@@@@@@@@@@+++.....   ",
"....+++@@@@@@@@@@@@@@@@@@@@...@@@@@@@...@@.......@@........@@@..@...@@........@@@...@@@@@@@@@@@@@@@@@@@@@@+++....   ",
"...+++@@@@@@@@@@@@@@@@@@@@@...@@@@@@@...@@@@...@@@@...@@...@@@....@@@@@@@@@@...@@...@@@@@@@@@@@@@@@@@@@@@@@+++...   ",
"..+++@@@@@@@@@@@@@@@@@@@@@@...@@@@@@@...@@@@...@@@...@@@@...@@...@@@@@@........@@...@@@@@@@@@@@@@@@@@@@@@@@@+++..   ",
"...+++@@@@@@@@@@@@@@@@@@@@@...@@@@@@@...@@@@...@@@..........@@...@@@@@.........@@...@@@@@@@@@@@@@@@@@@@@@@@+++...   ",
"....+++@@@@@@@@@@@@@@@@@@@@...@@@@@@@...@@@@...@@@..........@@...@@@@....@@@...@@...@@@@@@@@@@@@@@@@@@@@@@+++....   ",
".....+++@@@@@@@@@@@@@@@@@@@...@@@@@@@...@@@@...@@@...@@@@@@@@@...@@@@...@@@@...@@...@@@@@@@@@@@@@@@@@@@@@+++.....   ",
"......+++@@@@@@@@@@@@@@@@@@...@@@@@@@...@@@@...@@@@...@@@@.@@@...@@@@...@@@....@@...@@@@@@@@@@@@@@@@@@@@+++......   ",
".......+++@@@@@@@@@@@@@@@@@........@@...@@@@.....@@........@@@...@@@@@.........@@...@@@@@@@@@@@@@@@@@@@+++.......   ",
"........+++@@@@@@@@@@@@@@@@........@@...@@@@@....@@@@.....@@@@...@@@@@@....@...@@...@@@@@@@@@@@@@@@@@@+++........   ",
".........+++@@@@@@@@@@@@@@@@@@@@@@@@@@@@@@@@@@@@@@@@@@@@@@@@@@@@@@@@@@@@@@@@@@@@@@@@@@@@@@@@@@@@@@@@@+++.........   ",
"..........+++@@@@@@@@@@@@@@@@@@@@@@@@@@@@@@@@@@@@@@@@@@@@@@@@@@@@@@@@@@@@@@@@@@@@@@@@@@@@@@@@@@@@@@@+++..........   ",
"...........+++@@@@@@@@@@@@@@@@@@@@@@@@@@@@@@@@@@@@@@@@@@@@@@@@@@@@@@@@@@@@@@@@@@@@@@@@@@@@@@@@@@@@@+++...........   ",
"............+++@@@@@@@@@@@@@@@@@@@@@@@@@@@@@@@@@@@@@@@@@@@@@@@@@@@@@@@@@@@@@@@@@@@@@@@@@@@@@@@@@@@+++............   ",
".............+++@@@@@@@@@@@@@@@@@@@@@@@@@@@@@@@@@@@@@@@@@@@@@@@@@@@@@@@@@@@@@@@@@@@@@@@@@@@@@@@@@+++.............   ",
"..............+++@@@@@@@@@@@@@@@@@@@@@@@@@@@@@@@@@@@@@@@@@@@@@@@@@@@@@@@@@@@@@@@@@@@@@@@@@@@@@@@+++..............   ",
"...............+++@@@@@@@@@@@@@@@@@@@@@@@@@@@@@@@@@@@@@@@@@@@@@@@@@@@@@@@@@@@@@@@@@@@@@@@@@@@@@+++...............   ",
"...............++++@@@@@@@@@@@@@@@@@@@@@@@@@@@@@@@@@@@@@@@@@@@@@@@@@@@@@@@@@@@@@@@@@@@@@@@@@@@+++................   ",
"...............+++++@@@@@@@@@@@@@@@@@@@@@@@@@@@@@@@@@@@@@@@@@@@@@@@@@@@@@@@@@@@@@@@@@@@@@@@@@++++................   ",
"...............++#+++@@@@@@@@@@@@@@@@@@@@@@@@@@@@@@@@@@@@@@@@@@@@@@@@@@@@@@@@@@@@@@@@@@@@@@@+++++................   ",
"...............++##+++@@@@@@@@@@@@@@@@@@@@@@@@@@@@@@@@@@@@@@@@@@@@@@@@@@@@@@@@@@@@@@@@@@@@@+++#++................   ",
"...............++###+++@@@@@@@@@@@@@@@@@@@@@@@@@@@@@@@@@@@@@@@@@@@@@@@@@@@@@@@@@@@@@@@@@@@+++##++................   ",
"...............++####+++@@@@@@@@@@@@@@@@@@@@@@@@@@@@@@@@@@@@@@@@@@@@@@@@@@@@@@@@@@@@@@@@@+++###++................   ",
"...............++#####+++@@@@@@@@@@@@@@@@@@@@@@@@@@@@@@@@@@@@@@@@@@@@@@@@@@@@@@@@@@@@@@@+++####++................   ",
"...............++######+++@@@@@@@@@@@@@@@@@@@@@@@@@@@@@@@@@@@@@@@@@@@@@@@@@@@@@@@@@@@@@+++#####++................   ",
"...............++#######+++@@@@@@@@@@@@@@@@@@@@@@@@@@@@@@@@@@@@@@@@@@@@@@@@@@@@@@@@@@@+++######++................   ",
"...............++########+++@@@@@@@@@@@@@@@@@@@@@@@@@@@@@@@@@@@@@@@@@@@@@@@@@@@@@@@@@+++#######++................   ",
"...............++#########+++@@@@@@@@@@@@@@@@@@@@@@@@@@@@@@@@@@@@@@@@@@@@@@@@@@@@@@@+++########++................   ",
"...............++##########+++@@@@@@@@@@@@@@@@@@@@@@@@@@@@@@@@@@@@@@@@@@@@@@@@@@@@@+++#########++................   ",
"...............++###########+++@@@@@@@@@@@@@@@@@@@@@@@@@@@@@@@@@@@@@@@@@@@@@@@@@@@+++##########++................   ",
"...............++############+++@@@@@@@@@@@@@@@@@@@@@@@@@@@@@@@@@@@@@@@@@@@@@@@@@+++###########++................   ",
"...............++#############+++@@@@@@@@@@@@@@@@@@@@@@@@@@@@@@@@@@@@@@@@@@@@@@@+++############++................   ",
"...............++##############+++@@@@@@@@@@@@@@@@@@@@@@@@@@@@@@@@@@@@@@@@@@@@@+++#############++................   ",
"...............++###############+++@@@@@@@@@@@@@@@@@@@@@@@@@@@@@@@@@@@@@@@@@@@+++##############++................   ",
"...............++################+++@@@@@@@@@@@@@@@@@@@@@@@@@@@@@@@@@@@@@@@@@+++###############++................   ",
"...............++#################+++@@@@@@@@@@@@@@@@@@@@@@@@@@@@@@@@@@@@@@@+++################++................   ",
"...............++##################+++@@@@@@@@@@@@@@@@@@@@@@@@@@@@@@@@@@@@@+++#################++................   ",
"...............++###################+++@@@@@@@@@@@@@@@@@@@@@@@@@@@@@@@@@@@+++##################++................   ",
"...............++####################+++@@@@@@@@@@@@@@@@@@@@@@@@@@@@@@@@@+++###################++................   ",
"...............++#####################+++@@@@@@@@@@@@@@@@@@@@@@@@@@@@@@@+++####################++................   ",
"...............++######################+++@@@@@@@@@@@@@@@@@@@@@@@@@@@@@+++#####################++................   ",
"...............++#######################+++@@@@@@@@@@@@@@@@@@@@@@@@@@@+++######################++................   ",
"...............+++++++++++++++++++++++++++++@@@@@@@@@@@@@@@@@@@@@@@@@++++++++++++++++++++++++++++................   ",
"...............++++++++++++++++++++++++++++++@@@@@@@@@@@@@@@@@@@@@@@+++++++++++++++++++++++++++++................   ",
"...........................................+++@@@@@@@@@@@@@@@@@@@@@+++...........................................   ",
"............................................+++@@@@@@@@@@@@@@@@@@@+++............................................   ",
".............................................+++@@@@@@@@@@@@@@@@@+++.............................................   ",
"..............................................+++@@@@@@@@@@@@@@@+++..............................................   ",
"...............................................+++@@@@@@@@@@@@@+++...............................................   ",
"................................................+++@@@@@@@@@@@+++................................................   ",
".................................................+++@@@@@@@@@+++.................................................   ",
"..................................................+++@@@@@@@+++..................................................   ",
"...................................................+++@@@@@+++...................................................   ",
"....................................................+++@@@+++....................................................   ",
".....................................................+++@+++.....................................................   ",
"......................................................+++++......................................................   ",
".......................................................+++.......................................................   ",
"........................................................+........................................................   ",
".................................................................................................................   ",
"                                                                                                                    ",
"                                                                                                                    "};
