/* XPM */
static char *gnome-error[] = {
/* columns rows colors chars-per-pixel */
"48 48 133 2",
"   c #000000",
".  c #070909",
"X  c #0C0403",
"o  c #0A0A0A",
"O  c #0D0F10",
"+  c #130605",
"@  c #1D0907",
"#  c #1C0908",
"$  c #131313",
"%  c #1B1B1B",
"&  c #250C0A",
"*  c #2C0E0B",
"=  c #310D0A",
"-  c #3A0F0B",
";  c #35100E",
":  c #3D130F",
">  c #361210",
",  c #242424",
"<  c #2C2C2C",
"1  c #323232",
"2  c #3B3B3B",
"3  c #41130E",
"4  c #401411",
"5  c #4D1712",
"6  c #4E1814",
"7  c #571B15",
"8  c #591710",
"9  c #581B15",
"0  c #5C1E1A",
"q  c #6E190F",
"w  c #671C16",
"e  c #6B1D15",
"r  c #791E15",
"t  c #66221D",
"y  c #6C231E",
"u  c #7D231C",
"i  c #742620",
"p  c #772822",
"a  c #7F2821",
"s  c #484848",
"d  c #545454",
"f  c #656565",
"g  c #7E7E7E",
"h  c #951F11",
"j  c #981F11",
"k  c #83241B",
"l  c #87281E",
"z  c #892116",
"x  c #8B261C",
"c  c #89281F",
"v  c #952214",
"b  c #932419",
"n  c #92291F",
"m  c #9C2213",
"M  c #9A261A",
"N  c #9B291D",
"B  c #832B24",
"V  c #8C2A23",
"C  c #8E2E28",
"Z  c #8F3832",
"A  c #942C24",
"S  c #9B2D23",
"D  c #943029",
"F  c #9E3026",
"G  c #9D3229",
"H  c #9E3B32",
"J  c #A52415",
"K  c #A42618",
"L  c #A3291C",
"P  c #A82211",
"I  c #AA2718",
"U  c #AB291B",
"Y  c #B22413",
"T  c #B12718",
"R  c #B5291A",
"E  c #BB2513",
"W  c #BC2B1A",
"Q  c #A12D22",
"!  c #A92F20",
"~  c #A03026",
"^  c #A03229",
"/  c #A5392E",
"(  c #AB3224",
")  c #A9352A",
"_  c #A83A2E",
"`  c #A43C33",
"'  c #AF3F33",
"]  c #C32613",
"[  c #C72816",
"{  c #C62D1B",
"}  c #CE2E1C",
"|  c #D22813",
" . c #D02E1B",
".. c #DB2A15",
"X. c #DF301C",
"o. c #E22B15",
"O. c #EC2D15",
"+. c #E4311B",
"@. c #EA311B",
"#. c #EA3A1B",
"$. c #F4321A",
"%. c #F6381C",
"&. c #FD3216",
"*. c #FB3318",
"=. c #FC3B1A",
"-. c #C1782E",
";. c #FF401E",
":. c #D48D1D",
">. c #CD8622",
",. c #C18138",
"<. c #C79D37",
"1. c #C49C39",
"2. c #CA9D31",
"3. c #CDA137",
"4. c #CFA43C",
"5. c #D5A82E",
"6. c #DCAC2B",
"7. c #D4A534",
"8. c #D1A53A",
"9. c #D8A733",
"0. c #D9AA32",
"q. c #DAAD3C",
"w. c #DFB035",
"e. c #DDB039",
"r. c #E1AE23",
"t. c #E1B233",
"y. c #CFA540",
"u. c #D4AA43",
"i. c #D2AA48",
"p. c #D8AC40",
"a. c #DFB445",
"s. c #FDFDFD",
"d. c None",
/* pixels */
"d.d.d.d.d.d.d.d.d.d.d.d.d.d.d.d.d.d.d.d.d.d.d.d.d.d.d.d.d.d.d.d.d.d.d.d.d.d.d.d.d.d.d.d.d.d.d.d.",
"d.d.d.d.d.d.d.d.d.d.d.d.d.d.d.d.d.d.d.d.d.d.d.d.d.d.d.d.d.d.d.d.d.d.d.d.d.d.d.d.d.d.d.d.d.d.d.d.",
"d.d.d.d.d.d.d.d.d.d.d.d.d.d.d.d.d.d.d.d.d.d.d.d.d.d.d.d.d.d.d.d.d.d.d.d.d.d.d.d.d.d.d.d.d.d.d.d.",
"d.d.d.d.d.d.d.d.d.d.d.d.d.d.d.d.d.d.d.d.d.d.d.d.d.d.d.d.d.d.d.d.d.d.d.d.d.d.d.d.d.d.d.d.d.d.d.d.",
"d.d.d.d.d.d.d.d.d.d.d.d.d.d.d.d.d.d.d.d.d.d.d.d.d.d.d.d.d.d.d.d.d.d.d.d.d.d.d.d.d.d.d.d.d.d.d.d.",
"d.d.d.d.d.d.d.d.d.d.d.d.d.d.d.d.d.d.d.d.d.d.d.d.d.d.d.d.d.d.d.d.d.d.d.d.d.d.d.d.d.d.d.d.d.d.d.d.",
"d.d.d.d.d.d.d.d.d.d.d.d.d.d.d.d.d.d.d.d.d.d.d.d.d.d.d.d.d.d.d.d.d.d.d.d.d.d.d.d.d.d.d.d.d.d.d.d.",
"d.d.d.d.d.d.d.d.d.d.d.d.d.d.d.d.d.d.d.d.d.d.d.d.d.d.d.d.d.d.d.d.d.d.d.d.d.d.d.d.d.d.d.d.d.d.d.d.",
"d.d.d.d.d.d.d.d.d.d.d.d.d.d.d.d.d.d.=.&.*.*.$.O.@.@.@.@.@.  d.d.d.d.d.d.d.d.d.d.d.d.d.d.d.d.d.d.",
"d.d.d.d.d.d.d.d.d.d.d.d.d.d.d.=.=.&.O.| ] E Y Y Y P Y W { } } W   d.d.d.d.d.d.d.d.d.d.d.d.d.d.d.",
"d.d.d.d.d.d.d.d.d.d.d.d.d.d.&.&...] Y P P P P j v J J J I U R W R     d.d.d.d.d.d.d.d.d.d.d.d.d.",
"d.d.d.d.d.d.d.d.d.d.d.d.=.&.O.] Y P P P P P m m P I J J K K L U U U z   d.d.d.d.d.d.d.d.d.d.d.d.",
"d.d.d.d.d.d.d.d.d.d.d.=.&...E P P P P P P v J J J J J I K K L K L L L r     d.d.d.d.d.d.d.d.d.d.",
"d.d.d.d.d.d.d.d.d.d.=.&.| Y P P P P P P J v J J K I K ) ( K K L K L L N 8     d.d.d.d.d.d.d.d.d.",
"d.d.d.d.d.d.d.d.d.=.&.| P P P P P P P P J J m m J K K K ( ) L L N L L N k #   d.d.d.d.d.d.d.d.d.",
"d.d.d.d.d.d.d.d.d.=.o.Y P P P P J P ! ! J I J m m L K K K ) ) ) Q L L Q N w o   d.d.d.d.d.d.d.d.",
"d.d.d.d.d.d.d.d.=.&.E P P P J P ! ! P ( ( J K K K b m L L K L _ ) Q L L S x ; o   d.d.d.d.d.d.d.",
"d.d.d.d.d.d.d.d.*.| P P P P P J h S ! K ( ( K K K K b b L L L L ) _ Q Q L S 7       d.d.d.d.d.d.",
"d.d.d.d.d.d.d.#.*.E P P J h I P m P K ( ( ( ) J K K L b b N Q L L _ _ ( S Q u # $   d.d.d.d.d.d.",
"d.d.d.d.d.d.d.%...P P P P j J K I I K K ( ( ' ) L L L L M b N Q Q S / _ S S c = o   d.d.d.d.d.d.",
"d.d.d.d.d.d.  %.[ I :.r.r.r.r.r.r.6.6.6.6.6.e.a.e.0.0.0.0.7.2.2.7.8.8.-.Q S A 3   o   d.d.d.d.d.",
"d.d.d.d.d.d.  $.E P r.r.r.r.r.r.6.r.6.6.6.6.6.q.e.q.0.9.9.9.9.7.7.8.7.8.Q S A 5 . o   d.d.d.d.d.",
"d.d.d.d.d.d.  $.E P r.r.r.t.r.r.6.r.6.6.6.0.9.5.3.q.p.9.9.9.7.4.8.8.8.y.~ Q A 7   . , d.d.d.d.d.",
"d.d.d.d.d.d.  #.Y P r.r.r.r.t.t.6.6.6.6.6.6.6.9.5.2.7.p.p.7.4.7.<.1.1.1.~ F D 9   . % d.d.d.d.d.",
"d.d.d.d.d.d.  +.T J r.r.6.r.6.0.w.6.6.6.0.0.0.9.9.9.2.7.u.u.u.8.8.8.y.y.^ S C 6     % d.d.d.d.d.",
"d.d.d.d.d.d.  X.T J r.6.6.6.6.6.e.e.0.0.0.6.2.9.7.7.7.2.3.8.u.u.y.8.4.y.^ G V :     % d.d.d.d.d.",
"d.d.d.d.d.d.  } R J >.6.6.6.6.6.6.e.e.9.0.9.2.2.9.7.7.3.3.4.8.i.i.4.y.,.^ G a &     % s.d.d.d.d.",
"d.d.d.d.d.d.  R W K K K I K L N M S ) _ L L Q S S S S S Q S S ^ ^ ` ^ ^ F D w X   . % s.d.d.d.d.",
"d.d.d.d.d.d.  q { U I K L K L U M b L / Q Q L Q n n Q A Q Q G Q ^ ^ ` G G C 6     o , s.d.d.d.d.",
"d.d.d.d.d.d.  . U U K K L L L Q L N N N ^ S Q Q S c V A A ^ S G G ^ ^ ` D i # . . o 1 d.d.d.d.d.",
"d.d.d.d.d.d.  o e R U L L L L L Q L N Q ) / S Q Q S F ~ S ^ ^ G ^ ^ G H Z 6       % d d.d.d.d.d.",
"d.d.d.d.d.d.d.  . z U L L L L Q L S N N S ` Q S Q ~ Q ^ A A ^ G D / G C t +     o < s.d.d.d.d.d.",
"d.d.d.d.d.d.d.    + M K L S L Q Q ! Q S S S / Q Q ^ ^ ^ G D ^ ^ ^ G D p *       $ s s.d.d.d.d.d.",
"d.d.d.d.d.d.d.d.  . - M Q L L Q Q Q Q Q Q Q ` ` V A Q ^ ^ D D ^ G D p >       o , g d.d.d.d.d.d.",
"d.d.d.d.d.d.d.d.      = x S S Q Q Q Q ~ ~ ~ A ` Z G ^ ^ G G G G C y *         % d s.d.d.d.d.d.d.",
"d.d.d.d.d.d.d.d.d.1   . @ e N N S S Q Q ~ ~ ~ S H ` G ^ G G D B 0 &         % s s.d.d.d.d.d.d.d.",
"d.d.d.d.d.d.d.d.d.d.        3 k n S S S F F F G F ` G D D B y 4 .     .   O 1 s.s.d.d.d.d.d.d.d.",
"d.d.d.d.d.d.d.d.d.d.      .   X ; t k V V A A A C V B p 0 > X           O < g s.d.d.d.d.d.d.d.d.",
"d.d.d.d.d.d.d.d.d.d.d.        .     # * 4 7 0 9 6 : * #         .     $ 2 g s.d.d.d.d.d.d.d.d.d.",
"d.d.d.d.d.d.d.d.d.d.d.d.d.      .                         .   .   o , f s.s.d.d.d.d.d.d.d.d.d.d.",
"d.d.d.d.d.d.d.d.d.d.d.d.d.d.  , %   .     .     .           . $ % d g s.s.d.d.d.d.d.d.d.d.d.d.d.",
"d.d.d.d.d.d.d.d.d.d.d.d.d.d.d.d.    $ . . . o       o . O O , s g s.s.d.d.d.d.d.d.d.d.d.d.d.d.d.",
"d.d.d.d.d.d.d.d.d.d.d.d.d.d.d.d.d.d.d.  1 , , % % % , , 1 d s.s.s.d.d.d.d.d.d.d.d.d.d.d.d.d.d.d.",
"d.d.d.d.d.d.d.d.d.d.d.d.d.d.d.d.d.d.d.d.d.d.d.d.d.s.s.s.d.d.d.d.d.d.d.d.d.d.d.d.d.d.d.d.d.d.d.d.",
"d.d.d.d.d.d.d.d.d.d.d.d.d.d.d.d.d.d.d.d.d.d.d.d.d.d.d.d.d.d.d.d.d.d.d.d.d.d.d.d.d.d.d.d.d.d.d.d.",
"d.d.d.d.d.d.d.d.d.d.d.d.d.d.d.d.d.d.d.d.d.d.d.d.d.d.d.d.d.d.d.d.d.d.d.d.d.d.d.d.d.d.d.d.d.d.d.d.",
"d.d.d.d.d.d.d.d.d.d.d.d.d.d.d.d.d.d.d.d.d.d.d.d.d.d.d.d.d.d.d.d.d.d.d.d.d.d.d.d.d.d.d.d.d.d.d.d.",
"d.d.d.d.d.d.d.d.d.d.d.d.d.d.d.d.d.d.d.d.d.d.d.d.d.d.d.d.d.d.d.d.d.d.d.d.d.d.d.d.d.d.d.d.d.d.d.d."
};
