/* XPM */
static char *gnome-info[] = {
/* columns rows colors chars-per-pixel */
"48 48 152 2",
"   c #000000",
".  c #080807",
"X  c #0C0C0B",
"o  c #10100E",
"O  c #131311",
"+  c #1B1B16",
"@  c #1B1B1B",
"#  c #201D13",
"$  c #21211C",
"%  c #262626",
"&  c #2A2A27",
"*  c #2C2C2A",
"=  c #32322D",
"-  c #393625",
";  c #333333",
":  c #393732",
">  c #3A3A36",
",  c #3C3C3C",
"<  c #423F36",
"1  c #434032",
"2  c #44433A",
"3  c #4E493A",
"4  c #454544",
"5  c #4C4C45",
"6  c #4C4C4C",
"7  c #53534B",
"8  c #5C5A4D",
"9  c #535353",
"0  c #585851",
"q  c #5B5A59",
"w  c #6D664D",
"e  c #646159",
"r  c #716D5B",
"t  c #797157",
"y  c gray39",
"u  c #6B6B64",
"i  c #6C6C6B",
"p  c #736F61",
"a  c #72726C",
"s  c #79766C",
"d  c #7F7A64",
"f  c #747472",
"g  c #7C7C7B",
"h  c #80795C",
"j  c #8F8255",
"k  c #958857",
"l  c #9B8C5A",
"z  c #928963",
"x  c #9D9164",
"c  c #AA9A5A",
"v  c #B3A05E",
"b  c #ABA276",
"n  c #B9A864",
"m  c #B7AA7C",
"M  c #C1AE67",
"N  c #C4B26A",
"B  c #C9B76D",
"V  c #CCB96E",
"C  c #C3B373",
"Z  c #CBBA70",
"A  c #D1BD71",
"S  c #D1C076",
"D  c #D9C677",
"F  c #DAC67A",
"G  c #DAC87C",
"H  c #E2CD7F",
"J  c #E4D07E",
"K  c #838383",
"L  c #898782",
"P  c #8D8D86",
"I  c #94948D",
"U  c #999584",
"Y  c #939393",
"T  c #9C9C99",
"R  c #A29C84",
"E  c #B2B29B",
"W  c #B8B095",
"Q  c #A2A2A2",
"!  c #A9A9A4",
"~  c #AEAEA9",
"^  c #BAB6A9",
"/  c #B4B4B2",
"(  c #B9B9B1",
")  c #BCBCBB",
"_  c #C1B999",
"`  c #C2BEAF",
"'  c #D7C480",
"]  c #D8C78E",
"[  c #DDCB82",
"{  c #D7C896",
"}  c #C4C4B5",
"|  c #CACABB",
" . c #DFD2A9",
".. c #E0CE8A",
"X. c #E5D183",
"o. c #E5D58C",
"O. c #EED681",
"+. c #E9D58C",
"@. c #EFD882",
"#. c #EEDB8D",
"$. c #ECDB92",
"%. c #EBDB99",
"&. c #F2DD86",
"*. c #F2DD8B",
"=. c #F0DD91",
"-. c #F0DD9C",
";. c #F1DFA1",
":. c #F4E28E",
">. c #F4E293",
",. c #F4E39B",
"<. c #F8E692",
"1. c #F9E89C",
"2. c #EDE7BA",
"3. c #F4E5A2",
"4. c #F2E6AD",
"5. c #F7E8A6",
"6. c #F7EAAF",
"7. c #F9E9A6",
"8. c #F8EAAD",
"9. c #F4E7B2",
"0. c #F4E7BB",
"q. c #F7EBB1",
"w. c #F5EABC",
"e. c #F9EBB3",
"r. c #F8ECB9",
"t. c #C3C3C2",
"y. c #CACAC4",
"u. c #CBCBCA",
"i. c #D9D8CC",
"p. c #D5D5D3",
"a. c #DBDBDB",
"s. c #E0E0D7",
"d. c #E5E5DD",
"f. c #F4EAC2",
"g. c #F4EAC9",
"h. c #F8EFCD",
"j. c #F7EFD0",
"k. c #F7EED8",
"l. c #F9F0C7",
"z. c #FAF2D1",
"x. c #F9F2DB",
"c. c #E5E5E2",
"v. c #EAEAE4",
"b. c #ECECEA",
"n. c #F1F1EC",
"m. c #F9F4E4",
"M. c #FAF6E9",
"N. c #FAF8ED",
"B. c #F4F4F2",
"V. c #FCFBF5",
"C. c #FEFEFD",
"Z. c None",
/* pixels */
"Z.Z.Z.Z.Z.Z.Z.Z.Z.Z.Z.Z.Z.Z.Z.Z.Z.Z.Z.C.C.C.C.C.C.C.C.C.C.C.C.C.C.C.C.C.C.C.C.C.Z.Z.Z.Z.Z.Z.Z.Z.",
"Z.Z.Z.Z.Z.Z.Z.Z.Z.Z.Z.Z.Z.Z.Z.Z.Z.C.C.C.C.C.C.C.C.C.C.C.C.C.C.C.C.V.C.C.C.C.C.C.C.C.Z.Z.Z.Z.Z.Z.",
"Z.Z.Z.Z.Z.Z.Z.Z.Z.Z.Z.Z.Z.Z.Z.Z.C.C.C.C.C.C.C.V.V.C.C.C.C.C.C.C.C.V.V.C.C.C.C.C.C.C.C.Z.Z.Z.Z.Z.",
"Z.Z.Z.Z.Z.Z.Z.Z.Z.Z.Z.Z.Z.Z.Z.C.C.C.C.C.C.C.V.V.C.C.C.C.C.C.C.C.V.V.V.C.C.C.C.C.C.C.C.C.Z.Z.Z.Z.",
"Z.Z.Z.Z.Z.Z.Z.Z.Z.Z.Z.Z.Z.C.C.C.C.C.C.C.C.C.V.V.V.C.C.C.C.C.C.C.V.V.V.C.C.C.C.C.C.C.C.C.C.C.Z.Z.",
"Z.Z.Z.Z.Z.Z.Z.Z.Z.Z.Z.Z.Z.C.C.C.C.C.C.C.C.C.C.V.V.C.C.C.C.C.C.C.C.C.C.C.C.C.C.C.C.V.C.C.C.C.Z.Z.",
"Z.Z.Z.Z.Z.Z.Z.Z.Z.Z.Z.Z.C.C.C.C.C.C.C.C.C.C.C.V.C.C.C.C.C.C.C.C.C.C.C.C.C.C.C.V.V.V.C.C.C.C.C.Z.",
"Z.Z.Z.Z.Z.Z.Z.Z.Z.Z.Z.C.C.C.C.C.C.C.C.C.C.C.C.C.C.C.C.C.C.C.C.C.C.C.C.C.C.C.C.B.V.C.C.C.C.C.C.C.",
"Z.Z.Z.Z.Z.Z.Z.Z.Z.Z.C.C.C.V.V.V.C.C.C.C.C.C.C.C.C.C.C.C.C.C.C.C.C.C.C.C.C.C.C.C.V.C.C.C.C.C.C.C.",
"Z.Z.Z.Z.Z.Z.Z.Z.Z.Z.C.C.C.V.V.V.V.C.C.C.C.C.C.C.C.C.C.C.C.C.C.C.C.C.C.C.C.C.C.C.C.C.C.C.C.C.C.C.",
"Z.Z.Z.Z.Z.Z.Z.Z.Z.C.C.C.C.C.C.V.C.C.C.C.C.C.C.C.C.C.n.u.u.u.b.C.C.C.C.C.C.C.C.C.C.C.C.C.C.C.C.C.",
"Z.Z.Z.Z.Z.Z.Z.Z.Z.C.C.C.C.C.C.V.V.C.C.C.C.C.C.b.T 6 O * : < @ % y ) C.C.C.C.C.C.C.C.C.C.C.C.C.C.",
"Z.Z.Z.Z.Z.Z.Z.Z.C.C.C.C.C.C.C.C.C.C.C.C.C.C.t.* p [ #.,.=.=.#.] m l 8 ) C.C.C.C.C.C.C.C.C.C.C.C.",
"Z.Z.Z.Z.Z.Z.Z.Z.C.C.C.C.C.C.C.C.C.C.C.C.C.Q @ ` =.:.7.8.7.<.1.,.%.H ' # K B.C.C.C.C.C.C.C.C.C.C.",
"Z.Z.Z.Z.Z.Z.Z.Z.C.C.C.C.C.C.C.C.C.C.C.C.t.$ i.@.=.q.l.x.z.7.1.<.<.=... .q Y C.C.C.C.C.C.V.C.V.V.",
"Z.Z.Z.Z.Z.Z.Z.C.C.C.V.V.V.V.C.C.C.C.C.V.4 ^ 3.&.9.m.m.N.N.N.x.1.<.:.#.[ { ; u.C.C.C.C.C.C.V.V.C.",
"Z.Z.Z.Z.Z.Z.Z.C.C.C.V.V.V.V.V.C.C.C.C./ 9 -.*.3.h.m.m.m.m.M.m.e.1.<.:.o.V R 9 C.C.C.C.C.C.V.C.C.",
"Z.Z.Z.Z.Z.Z.Z.C.C.C.C.V.V.C.C.C.C.C.C.K U O.>.7.m.M.m.m.m.m.m.l.1.<.:.:.G C & s.C.C.C.C.C.C.C.C.",
"Z.Z.Z.Z.Z.Z.Z.C.C.C.C.C.C.C.C.C.C.C.C.y _ O.,.r.m.m.m.m.x.m.x.r.3.<.<.=.J n e Q C.C.C.C.C.C.C.C.",
"Z.Z.Z.Z.Z.Z.Z.C.C.C.C.C.C.C.C.C.C.C.C.y _ O.,.r.m.m.M.m.m.x.j.f.3.<.<.<.J B s g C.C.C.C.C.C.C.C.",
"Z.Z.Z.Z.Z.Z.Z.C.C.C.C.C.C.C.C.C.C.C.C.y W O.>.r.m.N.N.m.M.m.g.6.3.<.,.=.X.Z t Y C.C.C.C.C.C.C.C.",
"Z.Z.Z.Z.Z.Z.Z.C.C.C.C.C.C.C.C.C.C.C.C.K L $.>.q.m.N.m.m.N.r.r.g.3.>.<.=.J N w Q C.C.C.C.C.C.C.C.",
"Z.Z.Z.Z.Z.Z.Z.C.C.C.C.C.C.C.C.C.C.C.C.) 4 $.*.5.x.N.x.m.h.e.9.2.,.>.>.:.D c + p.C.C.C.C.C.C.C.C.",
"Z.Z.Z.Z.Z.Z.Z.C.C.C.C.C.C.C.V.C.V.V.C.B.i U &.,.z.N.m.m.r.3.4.;.>.>.#.J V h 9 B.C.C.C.C.C.C.C.C.",
"Z.Z.Z.Z.Z.Z.Z.C.C.C.C.C.C.V.V.C.C.C.C.C.a., #.7.h.N.m.k.4.3.3.-.=.o.[ D n 3 Q C.C.C.C.C.C.C.C.C.",
"Z.Z.Z.Z.Z.Z.Z.C.C.C.C.V.V.C.B.C.C.B.C.V.C.% =.q.x.x.k.f.3.=.=.$.+.[ G N k ; B.C.C.C.C.C.V.C.C.C.",
"Z.Z.Z.Z.Z.Z.Z.Z.C.C.C.V.V.V.V.V.B.C.C.C.c.1 &.q.x.f.f.8.,.#.#.[ Z Z B x 2 Q C.C.C.C.C.V.V.C.V.C.",
"Z.Z.Z.Z.Z.Z.Z.Z.C.C.C.V.V.C.V.C.B.C.C.C.t.3 @.w.0.;.;.-.#...F Z C b d . g C.C.C.C.C.C.C.V.V.V.C.",
"Z.Z.Z.Z.Z.Z.Z.Z.C.C.C.C.C.C.B.V.C.C.C.B.u O - q 8 b o.X.G G v k - . 6 ) C.C.C.C.C.C.C.C.C.C.C.C.",
"Z.Z.Z.Z.Z.Z.Z.Z.Z.C.C.C.C.C.V.V.C.C.C.C.: T / n.p.u + z m v c 3 y a.B.C.C.C.C.C.C.C.C.C.C.C.C.C.",
"Z.Z.Z.Z.Z.Z.Z.Z.Z.C.C.C.C.C.V.V.V.V.C.B.  O 7 P p.B.y.0 7 t r & a.C.C.C.C.C.C.C.C.C.C.C.C.C.C.C.",
"Z.Z.Z.Z.Z.Z.Z.Z.Z.Z.C.C.C.C.B.V.B.V.C.q % y.! > O P t.g q X > ) C.V.C.C.C.C.C.C.C.C.C.C.C.C.C.C.",
"Z.Z.Z.Z.Z.Z.Z.Z.Z.Z.C.C.C.C.B.V.C.n.C.@ 6 p.C.V.u.* 4 a f O b.V.V.V.V.C.C.V.C.C.C.C.C.C.C.C.C.C.",
"Z.Z.Z.Z.Z.Z.Z.Z.Z.Z.Z.C.C.C.B.B.B.b.n.  . * Y a.C./ a 6 , 4 C.C.C.V.C.C.C.C.C.C.C.C.C.C.C.C.C.C.",
"Z.Z.Z.Z.Z.Z.Z.Z.Z.Z.Z.Z.C.C.n.B.B.v.@   ) ~ 4 o I Y i i O K V.V.C.C.B.C.C.C.C.C.C.C.C.C.C.C.C.Z.",
"Z.Z.Z.Z.Z.Z.Z.Z.Z.Z.Z.Z.C.C.b.n.B.B.  s | n.n.( 7 4 g i . B.V.V.V.C.B.C.V.V.C.C.C.C.C.C.C.C.C.Z.",
"Z.Z.Z.Z.Z.Z.Z.Z.Z.Z.Z.Z.Z.C.d.b.n.B.    2 ; / n.u.u 4 7 % C.V.V.C.B.C.C.C.V.C.C.C.C.C.C.C.C.Z.Z.",
"Z.Z.Z.Z.Z.Z.Z.Z.Z.Z.Z.Z.Z.Z.| d.v.n.X   O o * * T i i   ; V.V.V.C.V.B.C.C.V.V.C.C.C.C.C.C.Z.Z.Z.",
"Z.Z.Z.Z.Z.Z.Z.Z.Z.Z.Z.Z.Z.Z.E | s.v.u.    o $ $ > i f   B.V.B.C.B.B.V.C.C.C.C.C.C.C.C.C.Z.Z.Z.Z.",
"Z.Z.Z.Z.Z.Z.Z.Z.Z.Z.Z.Z.Z.Z.E E E i.v.O . O O . = ; * o B.V.B.B.B.B.B.C.C.C.C.C.C.C.Z.Z.Z.Z.Z.Z.",
"Z.Z.Z.Z.Z.Z.Z.Z.Z.Z.Z.Z.Z.Z.E E E E | 5   O + X o   a.a.B.n.B.n.B.n.n.C.C.C.C.C.C.Z.Z.Z.Z.Z.Z.Z.",
"Z.Z.Z.Z.Z.Z.Z.Z.Z.Z.Z.Z.Z.Z.E E E E E E .       X v.b.M.n.n.n.n.b.v.b.C.C.C.C.Z.Z.Z.Z.Z.Z.Z.Z.Z.",
"Z.Z.Z.Z.Z.Z.Z.Z.Z.Z.Z.Z.Z.Z.E E E E E E E E } | i.s.a.d.v.v.v.v.a.s.i.C.C.Z.Z.Z.Z.Z.Z.Z.Z.Z.Z.Z.",
"Z.Z.Z.Z.Z.Z.Z.Z.Z.Z.Z.Z.Z.Z.E E E E E E E E E E E E E | | | | | E E E Z.Z.Z.Z.Z.Z.Z.Z.Z.Z.Z.Z.Z.",
"Z.Z.Z.Z.Z.Z.Z.Z.Z.Z.Z.Z.Z.Z.E E E E E E E E E E E E E E E E E E E E E Z.Z.Z.Z.Z.Z.Z.Z.Z.Z.Z.Z.Z.",
"Z.Z.Z.Z.Z.Z.Z.Z.Z.Z.Z.Z.Z.Z.E E E E E E E E E E E E E E E E E E E E E Z.Z.Z.Z.Z.Z.Z.Z.Z.Z.Z.Z.Z.",
"Z.Z.Z.Z.Z.Z.Z.Z.Z.Z.Z.Z.Z.Z.Z.Z.Z.Z.Z.Z.Z.Z.Z.Z.Z.Z.Z.Z.Z.Z.Z.Z.Z.Z.Z.Z.Z.Z.Z.Z.Z.Z.Z.Z.Z.Z.Z.Z.",
"Z.Z.Z.Z.Z.Z.Z.Z.Z.Z.Z.Z.Z.Z.Z.Z.Z.Z.Z.Z.Z.Z.Z.Z.Z.Z.Z.Z.Z.Z.Z.Z.Z.Z.Z.Z.Z.Z.Z.Z.Z.Z.Z.Z.Z.Z.Z.Z."
};
