/* XPM */
static char * test_node_icon1_xpm[] = {
"39 51 178 2",
"  	c None",
". 	c #FFFFFF",
"+ 	c #F0F0F0",
"@ 	c #8B8B8B",
"# 	c #3D3D3D",
"$ 	c #1A1A1A",
"% 	c #A00707",
"& 	c #2D2D2D",
"* 	c #727272",
"= 	c #D7D7D7",
"- 	c #ABABAB",
"; 	c #810A0A",
"> 	c #FF0000",
", 	c #787878",
"' 	c #FAFAFA",
") 	c #9F9F9F",
"! 	c #5F5F5F",
"~ 	c #FCFCFC",
"{ 	c #D1D1D1",
"] 	c #919191",
"^ 	c #4D4D4D",
"/ 	c #171717",
"( 	c #EAEAEA",
"_ 	c #AFAFAF",
": 	c #C1C1C1",
"< 	c #7A7A7A",
"[ 	c #B1B1B1",
"} 	c #6D6D6D",
"| 	c #C7C7C7",
"1 	c #808080",
"2 	c #F2F2F2",
"3 	c #DF0202",
"4 	c #BABABA",
"5 	c #626262",
"6 	c #252525",
"7 	c #F8F8F8",
"8 	c #E2E2E2",
"9 	c #620D0D",
"0 	c #BDBDBD",
"a 	c #838383",
"b 	c #FEFEFE",
"c 	c #CDCDCD",
"d 	c #353535",
"e 	c #181818",
"f 	c #A4A4A4",
"g 	c #323232",
"h 	c #E6E6E6",
"i 	c #F6F6F6",
"j 	c #BFBFBF",
"k 	c #6A6A6A",
"l 	c #656565",
"m 	c #343434",
"n 	c #666666",
"o 	c #4E4E4E",
"p 	c #BF0404",
"q 	c #8C8C8C",
"r 	c #6F6F6F",
"s 	c #111111",
"t 	c #464646",
"u 	c #969696",
"v 	c #292929",
"w 	c #888888",
"x 	c #404040",
"y 	c #C8C8C8",
"z 	c #989898",
"A 	c #A0A0A0",
"B 	c #0C0C0C",
"C 	c #121212",
"D 	c #C4C4C4",
"E 	c #959595",
"F 	c #3C3C3C",
"G 	c #FDFDFD",
"H 	c #EBEBEB",
"I 	c #0D0D0D",
"J 	c #000000",
"K 	c #9B9B9B",
"L 	c #747474",
"M 	c #E5E5E5",
"N 	c #333333",
"O 	c #686868",
"P 	c #0F0F0F",
"Q 	c #8A8A8A",
"R 	c #C2C2C2",
"S 	c #999999",
"T 	c #B5B5B5",
"U 	c #ECECEC",
"V 	c #555555",
"W 	c #F5F5F5",
"X 	c #383838",
"Y 	c #818181",
"Z 	c #242424",
"` 	c #030303",
" .	c #767676",
"..	c #E9E9E9",
"+.	c #6C6C6C",
"@.	c #EFEFEF",
"#.	c #0B0B0B",
"$.	c #9E9E9E",
"%.	c #A5A5A5",
"&.	c #5B5B5B",
"*.	c #525252",
"=.	c #8F8F8F",
"-.	c #B3B3B3",
";.	c #141414",
">.	c #0E0E0E",
",.	c #C9C9C9",
"'.	c #5A5A5A",
").	c #222222",
"!.	c #D9D9D9",
"~.	c #D2D2D2",
"{.	c #9A9A9A",
"].	c #080808",
"^.	c #FBFBFB",
"/.	c #F1F1F1",
"(.	c #5C5C5C",
"_.	c #4F4F4F",
":.	c #A2A2A2",
"<.	c #7B7B7B",
"[.	c #CACACA",
"}.	c #494949",
"|.	c #929292",
"1.	c #545454",
"2.	c #060606",
"3.	c #010101",
"4.	c #8E8E8E",
"5.	c #979797",
"6.	c #4A4A4A",
"7.	c #F7F7F7",
"8.	c #3B3B3B",
"9.	c #D6D6D6",
"0.	c #DFDFDF",
"a.	c #3A3A3A",
"b.	c #D0D0D0",
"c.	c #909090",
"d.	c #1D1D1D",
"e.	c #A9A9A9",
"f.	c #F9F9F9",
"g.	c #4C4C4C",
"h.	c #616161",
"i.	c #ADADAD",
"j.	c #251414",
"k.	c #D8D8D8",
"l.	c #373737",
"m.	c #F4F4F4",
"n.	c #2A2A2A",
"o.	c #E8E8E8",
"p.	c #848484",
"q.	c #DEDEDE",
"r.	c #565656",
"s.	c #3F3F3F",
"t.	c #A3A3A3",
"u.	c #5A0505",
"v.	c #BEBEBE",
"w.	c #2F2F2F",
"x.	c #595959",
"y.	c #949494",
"z.	c #DADADA",
"A.	c #431010",
"B.	c #B7B7B7",
"C.	c #322121",
"D.	c #898989",
"E.	c #F3F3F3",
"F.	c #E3E3E3",
"G.	c #CCCCCC",
"H.	c #515151",
"I.	c #C3C3C3",
"J.	c #1C1C1C",
"K.	c #DDDDDD",
"L.	c #434343",
"M.	c #424242",
"N.	c #1E1E1E",
"O.	c #606060",
"P.	c #7F7F7F",
"Q.	c #393939",
"R.	c #B0B0B0",
"S.	c #A1A1A1",
"T.	c #717171",
"U.	c #A8A8A8",
". . . . . . . . . . . . . + @ # $ % & * = . . . . . . . . . . . . . . . . . . ",
". . . . . . . . . . . . - ; > > > > > > > , ' . . . . . . . . . . . . . . . . ",
". . . . . . . . . . . ) > > > > > > > > > > ! ~ . . . . . . . . . . . . . . . ",
". . . . . . . . . . { > > > > > > > > > > > > ] . . . . . . . . . . . . . . . ",
". . . . . . . . . . ^ > > > > > > > > > > > > / + . . . . . . . . . . . . . . ",
". . . . . . . . . ( > > > > > > > > > > > > > > _ . . . . . . . . . . . . . . ",
". . . . . . . . . : > > > > > > > > > > > > > > < . . . . . . . . . . . . . . ",
". . . . . . . . . [ > > > > > > > > > > > > > > } . . . . . . . . . . . . . . ",
". . . . . . . . . | > > > > > > > > > > > > > > 1 . . . . . . . . . . . . . . ",
". . . . . . . . . 2 3 > > > > > > > > > > > > > 4 . . . . . . . . . . . . . . ",
". . . . . . . . . . 5 > > > > > > > > > > > > 6 7 . . . . . . . . . . . . . . ",
". . . . . . . . . . 8 9 > > > > > > > > > > > - . . . . . . . . . . . . . . . ",
". . . . . . . . . . . 0 > > > > > > > > > > a b . . . . . . . . . . . . . . . ",
". . . . . . . . . . . . c d > > > > > > e f b . . . . . . . . . . . . . . . . ",
". . . . . . . . . . . . . ' & > > > > g h i i i i i i i i i i i 7 . . . . . . ",
". . . . . . . . . j k l - ~ m > n o > > p 9 q r s s t u v s ^ w x y < < < < z ",
". . . . . . . . A B k , C a m > D E > > > F G H I J n . K J L M N : O d P O Q ",
". . . . . . . ' $ a . . R S N > D E > > > u T U V J n W ( X L M N . . Y Z . . ",
". . . . . . . 8 ` j . @ !  .N > D E > > > ..V f - J n U +.| , M N . . Y Z . . ",
". . . . . . . @.#.$.. %.&.Z g > D E > > *.G =.-.W ;.n U >.,.{ M N . . Y Z . . ",
". . . . . . . . '.).,.!.# Z g > D E > > - ~.S {.+ 5 n U ].X ^.M N . . Y Z . . ",
". . . . . . . . /.(.B C @ _.g > :.<.> > [.}.J J @ |.1.R 2.3.4.0 N . . 5.6.. . ",
". . . . . . . . . . 7.7 . . m > > > > 8.9.9.9.9.9.9.9.9.9.9.9.9.0.. . . . . . ",
". . . . . . . . . . . . . . m > > > > t . . . . . . . . . . . . . . . . . . . ",
". . . . . . . . . . . . . . m > > > > t . . . . . . . . . . . . . . . . . . . ",
". . . . . . . . . . . . . . m > > > > t . . . . . . . . . . . . . . . . . . . ",
". . . . . . . . . . . . . . m > > > > t . . . . . . . . . . . . . . . . . . . ",
". . . . . . . . . . . . . . m > > > > t . . . . . . . . . . . . . . . . . . . ",
". . . . . . . . . . . . . . m > > > > t . . . . . . . . . . . . . . . . . . . ",
". . . . . . . . . . . . . . m > > > > t . . . . . . . . . . . . . . . . . . . ",
". . . . . . . . . . . . . . m > > > > a.b . . . . . . . . . . . . . . . . . . ",
". . . . . . . . . . . . . b.> > > > > > c.. . . . . . . . . . . . . . . . . . ",
". . . . . . . . . . . . 8 d.> > > > > > > e.. . . . . . . . . . . . . . . . . ",
". . . . . . . . . . . + N > > > > > > > > > D . . . . . . . . . . . . . . . . ",
". . . . . . . . . . f.g.> > > > h.i.> > > > j.k.. . . . . . . . . . . . . . . ",
". . . . . . . . . ~ n J > > > l.m.. a > > > > n.o.. . . . . . . . . . . . . . ",
". . . . . . . . b p.> > > > > q.. . ~ r.> > > > s.i . . . . . . . . . . . . . ",
". . . . . . . . t.> > > > u.v.. . . . 2 w.> > > > x.~ . . . . . . . . . . . . ",
". . . . . . . j > > > > 3.y.. . . . . . z.A.> > > > L b . . . . . . . . . . . ",
". . . . . . k.> > > > J l . . . . . . . . B.> > > > > u . . . . . . . . . . . ",
". . . . . h C.> > > > 8.f.. . . . . . . . . D.> > > > > -.. . . . . . . . . . ",
". . . . E.l.> > > > > F.. . . . . . . . . . b &.> > > > > G.. . . . . . . . . ",
". . . ^.H.> > > > > I.. . . . . . . . . . . . m.d > > > > J.K.. . . . . . . . ",
". . G r > > > > > {.. . . . . . . . . . . . . . 0.e > > > > w.U . . . . . . . ",
". . 4.> > > > > +.b . . . . . . . . . . . . . . . j > > > > > L.f.. . . . . . ",
". i.> > > > J M.7 . . . . . . . . . . . . . . . . . c.> > > > > ! ~ . . . . . ",
"D > > > > > N.... . . . . . . . . . . . . . . . . . b O.> > > > > P.b . . . . ",
"^ > > > > > ,.. . . . . . . . . . . . . . . . . . . . W Q.> > > > > R.. . . . ",
"m._.> > > S.. . . . . . . . . . . . . . . . . . . . . . 8 J.> > > _.+ . . . . ",
". ^.O > T.. . . . . . . . . . . . . . . . . . . . . . . . I.> > n f.. . . . . ",
". . b U.f.. . . . . . . . . . . . . . . . . . . . . . . . . z 1 b . . . . . . "};
